<?xml version="1.0"?>
<svg xmlns="http://www.w3.org/2000/svg" xmlns:xlink="http://www.w3.org/1999/xlink" version="1.1" id="Layer_1_1_" x="0px" y="0px" viewBox="0 0 64 64" style="enable-background:new 0 0 64 64;" xml:space="preserve" width="512px" height="512px" class=""><g><g>
	<g>
		<rect x="23" y="37" style="fill:#4B68DA" width="18" height="7" data-original="#F0BC5E" class="" data-old_color="#F0BC5E"/>
	</g>
	<g>
		<rect x="51" y="2" style="fill:#4B68DA" width="12" height="13" data-original="#F0BC5E" class="" data-old_color="#F0BC5E"/>
	</g>
	<g>
		<path style="fill:#4B68DA" d="M41.799,23.13l-0.109-0.138C39.15,19.819,35.364,18,31.302,18C23.967,18,18,23.967,18,31.302V41h1    c0-2.209,1.791-4,4-4v-1c0-1.105,0.895-2,2-2h4c1.921,0,3.763-0.763,5.121-2.121L35,31l0.879,0.879    c0.983,0.983,2.218,1.654,3.554,1.95C40.348,34.031,41,34.837,41,35.774V37c2.209,0,4,1.791,4,4h1V28.916    C46,26.272,44.289,23.94,41.799,23.13z" data-original="#F0BC5E" class="" data-old_color="#F0BC5E"/>
	</g>
	<g>
		<path style="fill:#4B68DA" d="M15,53H1V31h14V53z" data-original="#F0BC5E" class="" data-old_color="#F0BC5E"/>
	</g>
	<g>
		<rect x="4" y="1" style="fill:#4B68DA" width="4" height="14" data-original="#F0BC5E" class="" data-old_color="#F0BC5E"/>
	</g>
	<g>
		<rect x="12" y="4" style="fill:#4B68DA" width="4" height="11" data-original="#F0BC5E" class="" data-old_color="#F0BC5E"/>
	</g>
	<g>
		<rect x="20" y="8" style="fill:#4B68DA" width="4" height="7" data-original="#F0BC5E" class="" data-old_color="#F0BC5E"/>
	</g>
	<g>
		<path d="M48.558,54.15L38,52.17V50h-0.006c0.29-0.219,0.574-0.45,0.843-0.702c1.003-0.94,1.792-2.073,2.331-3.315    C43.846,45.892,46,43.699,46,41c0-2.414-1.721-4.434-4-4.899v-0.327c0-1.413-0.967-2.615-2.352-2.923    c-1.162-0.257-2.221-0.838-3.062-1.68L35,29.586l-1.586,1.586C32.235,32.351,30.667,33,29,33h-4c-1.654,0-3,1.346-3,3v0.101    c-2.279,0.465-4,2.484-4,4.899c0,2.73,2.202,4.95,4.923,4.992c0.711,1.592,1.795,2.975,3.151,4.008H26v2.17l-10.558,1.98    c-3.21,0.602-5.847,2.9-6.879,5.999L7.612,63h48.775l-0.951-2.851C54.404,57.051,51.768,54.752,48.558,54.15z M44,41    c0,1.37-0.929,2.516-2.186,2.874C41.932,43.259,42,42.633,42,42v-3.816C43.161,38.598,44,39.698,44,41z M25,35h4    c2.202,0,4.271-0.857,5.828-2.414L35,32.414l0.172,0.172c1.111,1.111,2.51,1.879,4.044,2.219C39.678,34.907,40,35.306,40,35.774    V36H24C24,35.448,24.448,35,25,35z M20,41c0-1.302,0.839-2.402,2-2.816v3.507c0,0.754,0.087,1.488,0.237,2.198    C20.953,43.549,20,42.389,20,41z M24,41.691V38h16v4c0,2.235-0.898,4.309-2.53,5.839c-1.631,1.527-3.763,2.287-6.004,2.144    C27.279,49.712,24,46.069,24,41.691z M31.337,51.979C31.562,51.993,31.787,52,32.01,52c1.397,0,2.745-0.293,3.99-0.838v1.646    C35.783,53.285,34.806,55,32,55c-2.785,0-3.772-1.702-4-2.196v-1.668C29.033,51.602,30.154,51.902,31.337,51.979z M10.388,61    l0.072-0.218c0.804-2.41,2.854-4.198,5.352-4.667l10.633-1.994C27.096,55.207,28.672,57,32,57s4.904-1.793,5.555-2.878    l10.633,1.994c2.497,0.469,4.548,2.257,5.352,4.667L53.612,61H10.388z" data-original="#000000" class="active-path" style="fill:#000000" data-old_color="#000000"/>
		<rect x="5" y="35" width="6" height="2" data-original="#000000" class="active-path" style="fill:#000000" data-old_color="#000000"/>
		<rect x="5" y="39" width="6" height="2" data-original="#000000" class="active-path" style="fill:#000000" data-old_color="#000000"/>
		<rect x="5" y="43" width="6" height="2" data-original="#000000" class="active-path" style="fill:#000000" data-old_color="#000000"/>
		<rect x="5" y="47" width="6" height="2" data-original="#000000" class="active-path" style="fill:#000000" data-old_color="#000000"/>
		<rect x="1" y="14" width="26" height="2" data-original="#000000" class="active-path" style="fill:#000000" data-old_color="#000000"/>
		<polygon points="49.586,1 36.293,14.293 37.707,15.707 50.414,3 63,3 63,1   " data-original="#000000" class="active-path" style="fill:#000000" data-old_color="#000000"/>
		<rect x="51" y="5" width="12" height="2" data-original="#000000" class="active-path" style="fill:#000000" data-old_color="#000000"/>
		<rect x="51" y="9" width="12" height="2" data-original="#000000" class="active-path" style="fill:#000000" data-old_color="#000000"/>
		<rect x="61" y="13" width="2" height="2" data-original="#000000" class="active-path" style="fill:#000000" data-old_color="#000000"/>
		<rect x="51" y="13" width="8" height="2" data-original="#000000" class="active-path" style="fill:#000000" data-old_color="#000000"/>
		<rect x="56" y="24" width="2" height="3" data-original="#000000" class="active-path" style="fill:#000000" data-old_color="#000000"/>
		<rect x="52.818" y="25.319" transform="matrix(0.7071 -0.7071 0.7071 0.7071 -3.2004 45.9102)" width="2" height="3" data-original="#000000" class="active-path" style="fill:#000000" data-old_color="#000000"/>
		<rect x="51" y="29" width="3" height="2" data-original="#000000" class="active-path" style="fill:#000000" data-old_color="#000000"/>
		<rect x="52.319" y="32.182" transform="matrix(0.7071 -0.7071 0.7071 0.7071 -7.6999 47.774)" width="3" height="2" data-original="#000000" class="active-path" style="fill:#000000" data-old_color="#000000"/>
		<rect x="56" y="33" width="2" height="3" data-original="#000000" class="active-path" style="fill:#000000" data-old_color="#000000"/>
		<rect x="59.182" y="31.682" transform="matrix(0.7071 -0.7071 0.7071 0.7071 -5.8362 52.2735)" width="2" height="3" data-original="#000000" class="active-path" style="fill:#000000" data-old_color="#000000"/>
		<rect x="60" y="29" width="3" height="2" data-original="#000000" class="active-path" style="fill:#000000" data-old_color="#000000"/>
		<rect x="58.682" y="25.818" transform="matrix(0.7071 -0.7071 0.7071 0.7071 -1.3366 50.4098)" width="3" height="2" data-original="#000000" class="active-path" style="fill:#000000" data-old_color="#000000"/>
		<rect x="56" y="38" width="2" height="7" data-original="#000000" class="active-path" style="fill:#000000" data-old_color="#000000"/>
		<rect x="56" y="47" width="2" height="2" data-original="#000000" class="active-path" style="fill:#000000" data-old_color="#000000"/>
	</g>
</g></g> </svg>
