<svg id="Layer_1" data-name="Layer 1" xmlns="http://www.w3.org/2000/svg" viewBox="0 0 29 18.34"><defs><style>.cls-1{fill:#4b69d9;}</style></defs><title>email</title><path class="cls-1" d="M20.07,0H1.93a1.78,1.78,0,0,0-.82.21L11,10.79l2.21-2.28h0L20.9.21A1.86,1.86,0,0,0,20.07,0Z" transform="translate(4 0.06)"/><path class="cls-1" d="M21.81,1.19,14.53,9l7.28,7.81a2.18,2.18,0,0,0,.19-.89V2.08A2.18,2.18,0,0,0,21.81,1.19Z" transform="translate(4 0.06)"/><path class="cls-1" d="M.19,1.19A2.18,2.18,0,0,0,0,2.08V15.92a2.18,2.18,0,0,0,.19.89L7.47,9Z" transform="translate(4 0.06)"/><path class="cls-1" d="M13.62,10l-2.21,2.28a.62.62,0,0,1-.45.2.65.65,0,0,1-.46-.2L8.38,10,1.1,17.79a1.86,1.86,0,0,0,.83.21H20.07a1.78,1.78,0,0,0,.82-.21Z" transform="translate(4 0.06)"/><text x="4" y="0.06"></text><text x="4" y="0.06"></text></svg>