<svg id="Capa_1" data-name="Capa 1" xmlns="http://www.w3.org/2000/svg" viewBox="0 0 512 408.89"><defs><style>.cls-1{fill:#afafaf;}</style></defs><title>email</title><path class="cls-1" d="M466.28,463.74a43.35,43.35,0,0,0,30-11.49L351.18,304.81c-3.48,2.53-6.85,5-10,7.34q-16.27,12.19-26.43,19t-27,13.94q-16.86,7.11-31.43,7.11h-.57q-14.57,0-31.43-7.11t-27-13.94q-10.14-6.82-26.43-19c-3-2.26-6.38-4.73-10-7.38L15.75,452.25a43.37,43.37,0,0,0,30,11.49Z" transform="translate(0 -54.86)"/><path class="cls-1" d="M28.86,212A152.46,152.46,0,0,1,0,186.7V411L127.85,281.07Q89.5,253.85,28.86,212Z" transform="translate(0 -54.86)"/><path class="cls-1" d="M483.43,212q-58.38,40.16-99.23,69.15L512,411V186.7A158.72,158.72,0,0,1,483.43,212Z" transform="translate(0 -54.86)"/><path class="cls-1" d="M466.28,54.86H45.72q-22,0-33.86,15.09T0,107.71Q0,126,15.72,147.35t33.43,33.54q9.7,7,58.57,41.38,26.37,18.58,46,32.5c11.2,7.93,20.86,14.8,28.84,20.5.91.65,2.35,1.7,4.26,3.09l7.88,5.77q9.28,6.83,15.43,11T225,304.6a85.55,85.55,0,0,0,16.43,7.84,44.52,44.52,0,0,0,14.28,2.62h.57a44.62,44.62,0,0,0,14.29-2.62A85.84,85.84,0,0,0,287,304.6q8.7-5.22,14.86-9.43t15.43-11c3.2-2.36,5.81-4.27,7.87-5.77l4.27-3.09,28.91-20.42q35.53-25.09,104.8-74A137.13,137.13,0,0,0,498,145.17q14-20.91,14-43.85A44.92,44.92,0,0,0,498.43,68.5Q484.86,54.86,466.28,54.86Z" transform="translate(0 -54.86)"/></svg>