<svg id="Capa_1" data-name="Capa 1" xmlns="http://www.w3.org/2000/svg" viewBox="0 0 512 512"><defs><style>.cls-1{fill:#4b69d9;}</style></defs><title>linkedin</title><g id="post-linkedin"><path class="cls-1" d="M460.8,0H51.2A51.35,51.35,0,0,0,0,51.2V460.8A51.35,51.35,0,0,0,51.2,512H460.8A51.35,51.35,0,0,0,512,460.8V51.2A51.35,51.35,0,0,0,460.8,0ZM153.6,435.2H76.8V204.8h76.8ZM115.2,161.28a46.08,46.08,0,1,1,46.08-46.08A45.89,45.89,0,0,1,115.2,161.28Zm320,273.92H358.4V299.52c0-20.48-17.92-38.4-38.4-38.4s-38.4,17.92-38.4,38.4V435.2H204.8V204.8h76.8v30.72c12.8-20.48,41-35.84,64-35.84,48.64,0,89.6,41,89.6,89.6Z"/></g></svg>