<?xml version="1.0"?>
<svg xmlns="http://www.w3.org/2000/svg" id="Layer_35" enable-background="new 0 0 64 64" height="512px" viewBox="0 0 64 64" width="512px" class=""><g><path d="m19 47-1 .932v2.068 1.499c0 1.381-1.119 2.501-2.501 2.501-1.053 0-1.95-.653-2.319-1.574l-6.18 5.762v1.313c0 1.381-1.119 2.5-2.5 2.5-.177 0-.35-.02-.517-.055v1.054h59.017v-16z" fill="#f0bc5e" data-original="#F0BC5E" class="active-path" style="fill:#3172F6" data-old_color="#f0bc5e"/><path d="m55 23.018v3c0 1.105-.895 2-2 2s-2-.895-2-2v-3h-5v12h16v-12z" fill="#f0bc5e" data-original="#F0BC5E" class="active-path" style="fill:#3172F6" data-old_color="#f0bc5e"/><path d="m54 35h-2v8.5c0 .827-.673 1.5-1.5 1.5s-1.5-.673-1.5-1.5v-8.5h-2v8.5c0 1.93 1.57 3.5 3.5 3.5s3.5-1.57 3.5-3.5z" data-original="#000000" class="" style="fill:#000000" data-old_color="#000000"/><path d="m49.183 11.294c1.119-1.091 1.817-2.611 1.817-4.294 0-3.309-2.691-6-6-6s-6 2.691-6 6c0 1.77.775 3.359 1.998 4.458-1.392.319-2.747.799-4.023 1.437l-9.081 4.54c-.321.161-.605.369-.853.611-.604-.086-1.268-.034-1.878.22l-10.362 4.317c.749-1.001 1.199-2.239 1.199-3.583 0-3.309-2.691-6-6-6s-6 2.691-6 6c0 1.945.935 3.672 2.374 4.769-3.161 1.398-5.374 4.559-5.374 8.231v8 19.5c0 1.93 1.57 3.5 3.5 3.5s3.5-1.57 3.5-3.5v-14.5h4l-.001 6.498c0 .936.364 1.815 1.025 2.476.66.662 1.54 1.026 2.475 1.026 1.931 0 3.501-1.57 3.501-3.501v-1.499-8c0-2.757-2.243-5-5-5h-1v-5.365l15.02-7.068c.329-.154.617-.373.879-.62.174.027.347.053.528.053.528 0 1.058-.125 1.533-.362l11.04-5.52v7.264l-3.235 1.618c-1.705.852-2.765 2.566-2.765 4.472v12.028c0 1.93 1.57 3.5 3.5 3.5s3.5-1.57 3.5-3.5v-8.736l3-.818v-2.073l-3.526.962c-.868.237-1.474 1.03-1.474 1.93v8.736c0 .827-.673 1.5-1.5 1.5s-1.5-.673-1.5-1.5v-12.028c0-1.144.635-2.172 1.658-2.683l4.342-2.171v-10.619h-2.236l-11.698 5.849c-.197.099-.417.151-.639.151-.787 0-1.427-.64-1.427-1.5 0-.544.302-1.033.789-1.276l9.081-4.54c2.202-1.102 4.667-1.684 7.13-1.684.086 0 .169-.009.254-.013l1.746.03c3.86 0 7 3.14 7 7v6c0 .551-.449 1-1 1s-1-.449-1-1v-5.159c0-2.098-.813-4.073-2.29-5.562l-1.42 1.408c1.103 1.112 1.71 2.588 1.71 4.154v5.159c0 1.654 1.346 3 3 3s3-1.346 3-3v-6c0-4.212-2.912-7.748-6.817-8.723zm-43.183 7.706c0-2.206 1.794-4 4-4s4 1.794 4 4-1.794 4-4 4-4-1.794-4-4zm0 40.5c0 .827-.673 1.5-1.5 1.5s-1.5-.673-1.5-1.5v-15.526c.838.635 1.87 1.026 3 1.026zm5-29.135v8.635h3c1.654 0 3 1.346 3 3v8 1.499c0 .828-.673 1.501-1.501 1.501-.401 0-.778-.156-1.061-.439-.284-.284-.439-.661-.439-1.062l.001-6.499c0-1.103-.897-2-2-2h-6c-1.654 0-3-1.346-3-3v-8c0-3.86 3.14-7 7-7h4.2l11.733-4.889c.03-.012.066-.02.099-.031-.021.161-.033.325-.033.492 0 .891.35 1.696.909 2.306zm30-23.365c0-2.206 1.794-4 4-4s4 1.794 4 4c0 2.154-1.715 3.904-3.849 3.985l-.133-.002v.016c-.006 0-.011.002-.017.002-2.206-.001-4.001-1.795-4.001-4.001z" data-original="#000000" class="" style="fill:#000000" data-old_color="#000000"/><path d="m57 57h2v2h-2z" data-original="#000000" class="" style="fill:#000000" data-old_color="#000000"/><path d="m53 57h2v2h-2z" data-original="#000000" class="" style="fill:#000000" data-old_color="#000000"/><path d="m49 57h2v2h-2z" data-original="#000000" class="" style="fill:#000000" data-old_color="#000000"/></g> </svg>
