<?xml version="1.0"?>
<svg xmlns="http://www.w3.org/2000/svg" height="512px" viewBox="0 0 496 496" width="512px"><g><g fill="#f0bc5e"><path d="m32 328h96v136h-96zm0 0" data-original="#F0BC5E" class="active-path" style="fill:#3172F6" data-old_color="#F0BC5E"/><path d="m496 414.207031v-60.421875l-23.144531-5.914062c-.160157-.390625-.320313-.78125-.488281-1.167969l12.183593-20.535156-42.726562-42.726563-20.535157 12.183594c-.394531-.167969-.785156-.328125-1.167968-.488281l-5.914063-23.136719h-60.421875l-5.914062 23.144531c-.390625.160157-.78125.320313-1.167969.488281l-20.535156-12.183593-42.726563 42.726562 12.183594 20.535157c-.167969.394531-.328125.785156-.488281 1.167968l-23.136719 5.914063v60.421875l23.144531 5.914062c.160157.390625.320313.78125.488281 1.167969l-12.183593 20.535156 42.726562 42.726563 20.535157-12.183594c.394531.167969.785156.328125 1.167968.488281l5.914063 23.136719h60.421875l5.914062-23.144531c.390625-.160157.78125-.320313 1.167969-.488281l20.535156 12.183593 42.726563-42.726562-12.183594-20.535157c.167969-.394531.328125-.785156.488281-1.167968zm-112-6.207031c-13.257812 0-24-10.742188-24-24s10.742188-24 24-24 24 10.742188 24 24-10.742188 24-24 24zm0 0" data-original="#F0BC5E" class="active-path" style="fill:#3172F6" data-old_color="#F0BC5E"/><path d="m248 0c-39.703125 0-72 32.296875-72 72v32h8c0-13.257812 10.742188-24 24-24h1.375c14.488281 0 28.386719-5.753906 38.625-16 10.246094 10.246094 24.136719 16 38.625 16h1.375c13.257812 0 24 10.742188 24 24h8v-32c0-39.703125-32.296875-72-72-72zm0 0" data-original="#F0BC5E" class="active-path" style="fill:#3172F6" data-old_color="#F0BC5E"/></g><path d="m384 320c-35.289062 0-64 28.710938-64 64s28.710938 64 64 64 64-28.710938 64-64-28.710938-64-64-64zm0 112c-26.472656 0-48-21.527344-48-48s21.527344-48 48-48 48 21.527344 48 48-21.527344 48-48 48zm0 0" data-original="#000000" class="" style="fill:#000000" data-old_color="#000000"/><path d="m384 352c-17.648438 0-32 14.351562-32 32s14.351562 32 32 32 32-14.351562 32-32-14.351562-32-32-32zm0 48c-8.824219 0-16-7.175781-16-16s7.175781-16 16-16 16 7.175781 16 16-7.175781 16-16 16zm0 0" data-original="#000000" class="" style="fill:#000000" data-old_color="#000000"/><path d="m202.601562 135.457031c2.679688 7.855469 7.34375 14.78125 13.398438 20.222657v6.785156l-38.039062 14.261718c-15.527344 5.816407-25.960938 20.867188-25.960938 37.449219v41.824219h192v-41.824219c0-16.582031-10.433594-31.632812-25.953125-37.457031l-38.046875-14.261719v-6.777343c6.054688-5.433594 10.71875-12.359376 13.398438-20.222657 15.074218-2.585937 26.601562-15.664062 26.601562-31.457031 0-17.648438-14.351562-32-32-32h-1.375c-12.457031 0-24.167969-4.847656-32.96875-13.65625l-5.65625-5.664062-5.65625 5.664062c-8.808594 8.808594-20.511719 13.65625-32.96875 13.65625h-1.375c-17.648438 0-32 14.351562-32 32 0 15.792969 11.527344 28.871094 26.601562 31.457031zm61.398438 30.328125-16 26.664063-16-26.664063v-.585937c5.015625 1.785156 10.382812 2.800781 16 2.800781s10.984375-1.023438 16-2.800781zm-43.433594 12.046875 16.128906 26.871094-16.023437 8.007813-10.351563-31.039063zm107.433594 36.34375v25.824219h-160v-25.824219c0-9.953125 6.257812-18.976562 15.574219-22.472656l11.761719-4.40625 15.992187 47.984375 36.671875-18.335938 36.671875 18.335938 15.992187-47.984375 11.769532 4.414063c9.308594 3.488281 15.566406 12.511718 15.566406 22.464843zm-42.320312-32.503906-10.351563 31.046875-16.023437-8.007812 16.128906-26.878907zm18.320312-77.671875c0 5.894531-3.238281 11-8 13.777344v-27.546875c4.761719 2.769531 8 7.875 8 13.769531zm-56-29.320312c9.238281 7.273437 20.289062 11.535156 32 12.769531v32.550781c0 17.648438-14.351562 32-32 32s-32-14.351562-32-32v-32.542969c11.710938-1.234375 22.761719-5.503906 32-12.777343zm-48 15.542968v27.546875c-4.761719-2.777343-8-7.882812-8-13.777343 0-5.894532 3.238281-10.992188 8-13.769532zm0 0" data-original="#000000" class="" style="fill:#000000" data-old_color="#000000"/><path d="m0 496h160v-208h-160zm16-192h128v176h-128zm0 0" data-original="#000000" class="" style="fill:#000000" data-old_color="#000000"/><path d="m32 320h96v16h-96zm0 0" data-original="#000000" class="" style="fill:#000000" data-old_color="#000000"/><path d="m32 352h16v16h-16zm0 0" data-original="#000000" class="" style="fill:#000000" data-old_color="#000000"/><path d="m64 352h64v16h-64zm0 0" data-original="#000000" class="" style="fill:#000000" data-old_color="#000000"/><path d="m32 384h96v16h-96zm0 0" data-original="#000000" class="" style="fill:#000000" data-old_color="#000000"/><path d="m32 416h96v16h-96zm0 0" data-original="#000000" class="" style="fill:#000000" data-old_color="#000000"/><path d="m112 448h16v16h-16zm0 0" data-original="#000000" class="" style="fill:#000000" data-old_color="#000000"/><path d="m32 448h64v16h-64zm0 0" data-original="#000000" class="" style="fill:#000000" data-old_color="#000000"/><path d="m213.65625 357.65625-11.3125-11.3125-37.65625 37.65625 37.65625 37.65625 11.3125-11.3125-18.34375-18.34375h60.6875v-16h-60.6875zm0 0" data-original="#000000" class="" style="fill:#000000" data-old_color="#000000"/><path d="m88 128c0-4.40625 3.585938-8 8-8h36.6875l-18.34375 18.34375 11.3125 11.3125 37.65625-37.65625-37.65625-37.65625-11.3125 11.3125 18.34375 18.34375h-36.6875c-13.230469 0-24 10.769531-24 24v144h16zm0 0" data-original="#000000" class="" style="fill:#000000" data-old_color="#000000"/><path d="m384 128v100.6875l-18.34375-18.34375-11.3125 11.3125 37.65625 37.65625 37.65625-37.65625-11.3125-11.3125-18.34375 18.34375v-100.6875c0-13.230469-10.769531-24-24-24h-40v16h40c4.414062 0 8 3.59375 8 8zm0 0" data-original="#000000" class="" style="fill:#000000" data-old_color="#000000"/></g> </svg>
