<?xml version="1.0" encoding="utf-8"?>
<!-- Generator: Adobe Illustrator 22.1.0, SVG Export Plug-In . SVG Version: 6.00 Build 0)  -->
<svg version="1.1" id="Layer_1" xmlns="http://www.w3.org/2000/svg" xmlns:xlink="http://www.w3.org/1999/xlink" x="0px" y="0px"
	 viewBox="0 0 600 636" style="enable-background:new 0 0 600 636;" xml:space="preserve">
<style type="text/css">
	.st0{fill:#4967D7;}
	.st1{fill:#FFFFFF;}
</style>
<circle class="st0" cx="300.5" cy="318.5" r="291.5"/>
<image style="overflow:visible;enable-background:new    ;" width="65" height="69" id="Polygon_1" xlink:href="2A08C4C6BE0E5FCF.png"  transform="matrix(1 0 0 1 131 346)">
</image>
<rect id="Rectangle_4_copy" x="225.2" y="381.7" class="st1" width="57" height="33"/>
<rect id="Rectangle_4_copy-2" x="406" y="382" class="st1" width="64.3" height="33"/>
<rect id="Rectangle_4_copy-2_1_" x="316.6" y="223" class="st1" width="56.1" height="33"/>
<rect id="Rectangle_4_copy_2" x="129.7" y="223" class="st1" width="61.3" height="33"/>
<path id="Rectangle_4_copy_2-2" class="st1" d="M316.2,223l46.7,22l-80.5,169.7l-46.7-22L316.2,223z"/>
<path id="Rectangle_4_copy_2-2_2_" class="st1" d="M504,222.9l46.7,22.1l-80.5,170.1L423.5,393L504,222.9z"/>
<path class="st1" d="M538.5,150.2c-26.7,56.5-53.4,112.9-80.2,169.4l46.5,22c21.5-45.4,42.9-90.7,64.4-136.1
	c-2.7-8.5-6.7-18.9-13-30C550.4,165,544.1,156.7,538.5,150.2z"/>
<path id="Rectangle_4_copy_2-2_1_" class="st1" d="M129.9,222.9l46,21.8L96.6,412.2l-46-21.8L129.9,222.9z"/>
<path id="Rectangle_4_copy_2-2_4_" class="st1" d="M95.1,296.5l46,21.8C114.7,374.1,88.2,430,61.8,485.9c-5.9-8-12.1-17.5-18-28.5
	c-5.1-9.4-9.1-18.3-12.3-26.4C52.7,386.1,73.9,341.3,95.1,296.5z"/>
<path id="Rectangle_4_copy_4" class="st1" d="M372.6,223L326,245.1L406.4,415l46.6-22.1L372.6,223z"/>
<path id="Rectangle_4_copy_4_1_" class="st1" d="M191.4,223.5l-46.4,22l80,169.2l46.4-22L191.4,223.5z"/>
<rect x="128" y="346.3" class="st1" width="65" height="68.7"/>
<rect x="84.4" y="353.7" transform="matrix(0.4238 -0.9057 0.9057 0.4238 -256.9896 334.5193)" class="st0" width="100.1" height="31.2"/>
<rect x="138.3" y="358.6" transform="matrix(-0.4286 -0.9035 0.9035 -0.4286 -69.316 705.3508)" class="st0" width="100.1" height="32"/>
<path class="st1" d="M538.7,150.2"/>
</svg>
