<svg id="Layer_1" data-name="Layer 1" xmlns="http://www.w3.org/2000/svg" viewBox="0 0 1000 1000"><defs><style>.cls-1{fill:#fff;}</style></defs><title>logo</title><path class="cls-1" d="M473,1001H1V1H1001V1001H529c5.36-1,10.69-2.15,16.08-2.85,14-1.8,28.19-2.79,42.1-5.23a404.63,404.63,0,0,0,42.26-9.71c13.85-4,27.47-8.93,40.89-14.2,13.87-5.45,27.66-11.25,41-17.93,13.61-6.82,26.64-14.82,39.85-22.41,21.82-12.54,42-27.48,61.32-43.46q16.72-13.83,32.41-28.9c10.3-9.9,20.35-20.13,29.7-30.92C885.36,813,896,800.24,905.36,786.76c12-17.27,23.25-35.18,34-53.29,6.52-10.94,12-22.59,17.16-34.24s9.63-23.3,13.93-35.14c3.78-10.42,7.42-21,10.18-31.69,3.49-13.58,7.63-27,8.66-41.23.67-9.37,3.49-18.56,4.69-27.91a449.42,449.42,0,0,0,.26-111.64c-1.44-11.88-3.17-23.73-5.26-35.5-1.74-9.81-3.94-19.56-6.41-29.21-2.88-11.26-6.1-22.45-9.52-33.56-2.93-9.51-5.93-19-9.65-28.24q-8.55-21.21-18.22-42c-5.56-11.86-11.52-23.57-18-34.94-7-12.26-14.35-24.36-22.35-36-8.17-11.87-17.27-23.12-26.13-34.51-.9-1.16-3-1.42-4.48-2.1-.46,1.49-1.32,3-1.32,4.49,0,27.83-.4,55.67.16,83.49,1.16,57.26-2.48,114.54,2.46,171.82,4.18,48.5,1.29,96.79-9.94,144.46-4.58,19.46-10,38.58-17.62,57-8.49,20.54-18.26,40.48-30.34,59.27a381.69,381.69,0,0,1-86.22,96.16c-9.33,7.36-19.06,14.27-28.95,20.86-11.3,7.53-22.8,14.77-34.56,21.54-6.41,3.7-13.43,6.41-20.35,9.13-16.34,6.42-32.66,13-49.26,18.66-6.66,2.28-14,3-21.11,3.5-6,.46-8.21-2.27-8.2-8q.07-94,.18-188c0-3.67-1.29-5.1-4.93-5.1q-63.24.07-126.5,0c-3.63,0-4.93,1.42-4.93,5.09q.15,92.51.13,185c0,9.75-2.78,12.2-12.64,10.89-1.32-.17-2.61-.54-3.92-.78a188.27,188.27,0,0,1-43.79-13.26c-13-5.82-26.23-11.08-38.94-17.43-8.39-4.2-16-10-24-14.91-17.36-10.77-34.1-22.3-49.47-35.92a471.72,471.72,0,0,1-42.45-42.15A320.24,320.24,0,0,1,180,688.93C172.65,676,166,662.59,159.67,649.08a311.77,311.77,0,0,1-14.49-35.44,318.87,318.87,0,0,1-10.86-41.94c-3.57-19.81-7-39.81-8.09-59.86-1.35-24.07-.55-48.29-.07-72.43.23-11.78,2.67-23.53,2.71-35.3.27-73,.13-146,.14-219a62.8,62.8,0,0,0,.09-7c-.33-3-2.27-3.82-4.51-1.88a46.5,46.5,0,0,0-7.22,7.56c-7.63,10.47-15.57,20.77-22.43,31.75C84.49,232.3,74.45,249.33,65,266.65,58.25,279,52.45,291.9,46.81,304.81c-4.91,11.24-9.31,22.73-13.39,34.31-3.64,10.33-6.93,20.81-9.65,31.41q-6,23.4-10.91,47.08c-1.9,9.26-2.6,18.76-4.07,28.11-6.06,38.64-5.39,77.35-1,116,1.14,10,3.44,19.91,5.16,29.87,1.6,9.27,2.36,18.75,4.84,27.77,4.89,17.74,9.89,35.53,16.4,52.72,6.32,16.7,14.37,32.78,22.06,48.94,10.82,22.71,24.31,43.85,39.13,64.13,6.77,9.26,14.35,17.93,21,27.28s15.26,17.16,22.91,25.66c22.3,24.82,47.57,46.55,74.72,66,15.1,10.79,30.75,20.86,46.53,30.64,10.28,6.36,21.08,11.92,31.93,17.27,10.4,5.12,21,9.83,31.78,14.15,12.61,5.08,25.3,10.08,38.26,14.13,13.64,4.26,27.52,7.85,41.5,10.79,12.35,2.6,25,4,37.48,5.75C452,998.31,462.49,999.61,473,1001ZM213,327h0c0,70.16.13,140.33-.12,210.49,0,12.44.81,24.64,5.08,36.28,5.82,15.88,11.47,31.92,18.8,47.11A414.75,414.75,0,0,0,263.41,668c19.7,30,45.92,54.12,73.17,77.1,2.61,2.2,4.09,1,4.44-1.73a62.65,62.65,0,0,0,0-8q0-79.49,0-159c0-8.63,0-8.63,8.75-8.63h114q95.49,0,191,0c3.72,0,6.37.2,6.36,5.19q-.21,82.5-.13,165a32.36,32.36,0,0,0,0,5.48c.47,2.72,1.89,3.93,4.45,1.71,6.75-5.84,13.63-11.55,20.23-17.55,21.89-19.87,42.1-41.33,57.69-66.56a483.72,483.72,0,0,0,24.91-45.88c5.41-11.34,8.49-23.75,13.27-35.41A102.39,102.39,0,0,0,789.1,540q-.26-220.23,0-440.47c0-3-1-4.81-3.74-6.26-9-4.64-17.75-9.62-26.62-14.43-3-1.65-6.14-3.17-9.22-4.75-9.27-4.74-18.52-9.52-27.81-14.21-6.63-3.34-13.25-6.73-20-9.8-8.27-3.76-16.59-7.45-25.06-10.74Q663,34,649,29.58c-7.12-2.24-14.42-4-21.72-5.61-16.2-3.64-32.36-7.58-48.71-10.45s-32.9-5.33-49.47-6.64c-16.2-1.28-32.62-2-48.81-.91-17.72,1.16-35.32,4.44-52.92,7.15-12,1.86-24,4-35.8,6.63-12.3,2.74-24.51,6-36.63,9.51a300.06,300.06,0,0,0-28.7,9.61c-10.72,4.29-21.1,9.44-31.59,14.3-9.75,4.51-19.6,8.83-29.14,13.75C250.4,74.71,235.45,82.82,220.57,91c-3.48,1.92-7.75,2.89-7.73,9C213.07,175.68,213,251.34,213,327Z" transform="translate(-1 -1)"/><path d="M473,1001c-10.51-1.39-21-2.69-31.52-4.18C429,995,416.35,993.67,404,991.07c-14-2.94-27.86-6.53-41.5-10.79-13-4-25.65-9-38.26-14.13-10.75-4.32-21.38-9-31.78-14.15-10.85-5.35-21.65-10.91-31.93-17.27C244.75,925,229.1,914.88,214,904.09c-27.15-19.4-52.42-41.13-74.72-66-7.65-8.5-16.21-16.23-22.91-25.66s-14.22-18-21-27.28c-14.82-20.28-28.31-41.42-39.13-64.13-7.69-16.16-15.74-32.24-22.06-48.94-6.51-17.19-11.51-35-16.4-52.72-2.48-9-3.24-18.5-4.84-27.77-1.72-10-4-19.85-5.16-29.87-4.39-38.7-5.06-77.41,1-116,1.47-9.35,2.17-18.85,4.07-28.11Q17.74,394,23.77,370.53c2.72-10.6,6-21.08,9.65-31.41,4.08-11.58,8.48-23.07,13.39-34.31C52.45,291.9,58.25,279,65,266.65c9.46-17.32,19.5-34.35,30-51.09,6.86-11,14.8-21.28,22.43-31.75a46.5,46.5,0,0,1,7.22-7.56c2.24-1.94,4.18-1.08,4.51,1.88a62.8,62.8,0,0,1-.09,7c0,73,.13,146-.14,219,0,11.77-2.48,23.52-2.71,35.3-.48,24.14-1.28,48.36.07,72.43,1.13,20.05,4.52,40.05,8.09,59.86a318.87,318.87,0,0,0,10.86,41.94,311.77,311.77,0,0,0,14.49,35.44c6.3,13.51,13,26.9,20.35,39.85a320.24,320.24,0,0,0,37.7,52.54,471.72,471.72,0,0,0,42.45,42.15c15.37,13.62,32.11,25.15,49.47,35.92,8,5,15.63,10.71,24,14.91,12.71,6.35,26,11.61,38.94,17.43a188.27,188.27,0,0,0,43.79,13.26c1.31.24,2.6.61,3.92.78C430.17,867.23,433,864.78,433,855q0-92.5-.13-185c0-3.67,1.3-5.09,4.93-5.09q63.26.07,126.5,0c3.64,0,4.93,1.43,4.93,5.1Q569,764,569,858c0,5.71,2.2,8.44,8.2,8,7.1-.55,14.45-1.22,21.11-3.5,16.6-5.7,32.92-12.24,49.26-18.66,6.92-2.72,13.94-5.43,20.35-9.13,11.76-6.77,23.26-14,34.56-21.54,9.89-6.59,19.62-13.5,28.95-20.86a381.69,381.69,0,0,0,86.22-96.16c12.08-18.79,21.85-38.73,30.34-59.27,7.6-18.42,13-37.54,17.62-57,11.23-47.67,14.12-96,9.94-144.46-4.94-57.28-1.3-114.56-2.46-171.82-.56-27.82-.2-55.66-.16-83.49,0-1.5.86-3,1.32-4.49,1.52.68,3.58.94,4.48,2.1,8.86,11.39,18,22.64,26.13,34.51,8,11.61,15.36,23.71,22.35,36,6.48,11.37,12.44,23.08,18,34.94q9.69,20.72,18.22,42c3.72,9.21,6.72,18.73,9.65,28.24,3.42,11.11,6.64,22.3,9.52,33.56,2.47,9.65,4.67,19.4,6.41,29.21,2.09,11.77,3.82,23.62,5.26,35.5A449.42,449.42,0,0,1,994,563.26c-1.2,9.35-4,18.54-4.69,27.91-1,14.21-5.17,27.65-8.66,41.23-2.76,10.73-6.4,21.27-10.18,31.69-4.3,11.84-8.79,23.64-13.93,35.14s-10.64,23.3-17.16,34.24c-10.78,18.11-22,36-34,53.29-9.41,13.48-20,26.2-30.78,38.63-9.35,10.79-19.4,21-29.7,30.92s-21.26,19.68-32.41,28.9c-19.35,16-39.5,30.92-61.32,43.46-13.21,7.59-26.24,15.59-39.85,22.41-13.31,6.68-27.1,12.48-41,17.93-13.42,5.27-27,10.21-40.89,14.2a404.63,404.63,0,0,1-42.26,9.71c-13.91,2.44-28.07,3.43-42.1,5.23-5.39.7-10.72,1.89-16.08,2.85H519a66.89,66.89,0,0,0-36,0Z" transform="translate(-1 -1)"/><path class="cls-1" d="M483,1001a66.89,66.89,0,0,1,36,0Z" transform="translate(-1 -1)"/><path d="M213,327c0-75.66.08-151.32-.15-227,0-6.08,4.25-7.05,7.73-9,14.88-8.22,29.83-16.33,44.95-24.12,9.54-4.92,19.39-9.24,29.14-13.75,10.49-4.86,20.87-10,31.59-14.3A300.06,300.06,0,0,1,355,29.26c12.12-3.51,24.33-6.77,36.63-9.51,11.84-2.64,23.81-4.77,35.8-6.63,17.6-2.71,35.2-6,52.92-7.15,16.19-1.06,32.61-.37,48.81.91,16.57,1.31,33.09,3.76,49.47,6.64S611.09,20.33,627.29,24c7.3,1.64,14.6,3.37,21.72,5.61Q663,34,676.62,39.31c8.47,3.29,16.79,7,25.06,10.74,6.75,3.07,13.37,6.46,20,9.8,9.29,4.69,18.54,9.47,27.81,14.21,3.08,1.58,6.18,3.1,9.22,4.75,8.87,4.81,17.66,9.79,26.62,14.43,2.79,1.45,3.74,3.21,3.74,6.26Q789,319.75,789.1,540a102.39,102.39,0,0,1-7.58,39.76c-4.78,11.66-7.86,24.07-13.27,35.41A483.72,483.72,0,0,1,743.34,661c-15.59,25.23-35.8,46.69-57.69,66.56-6.6,6-13.48,11.71-20.23,17.55-2.56,2.22-4,1-4.45-1.71a32.36,32.36,0,0,1,0-5.48q0-82.5.13-165c0-5-2.64-5.19-6.36-5.19q-95.49.07-191,0h-114c-8.79,0-8.75,0-8.75,8.63q0,79.5,0,159a62.65,62.65,0,0,1,0,8c-.35,2.71-1.83,3.93-4.44,1.73-27.25-23-53.47-47.08-73.17-77.1a414.75,414.75,0,0,1-26.64-47.16c-7.33-15.19-13-31.23-18.8-47.11-4.27-11.64-5.12-23.84-5.08-36.28.25-70.16.12-140.33.12-210.49Zm128-26.43h0q0,64-.05,128c0,3.54.55,5.73,4.8,5.71q39.24-.13,78.48,0c3.69,0,4.92-1.51,4.91-5.11-.09-66.49-.05-133-.23-199.45,0-4.33,1.41-7.4,5-8.82,8.64-3.38,17.28-7.17,26.28-9.17,21.48-4.79,43.35-4.4,65.17-2.65a121.88,121.88,0,0,1,41.69,11.24c3.55,1.65,6.06,4,6,8.75-.17,66.48-.12,133-.26,199.44,0,4.43,1.47,5.82,5.77,5.8q38.49-.19,77,0c4.13,0,5.48-1.43,5.47-5.57q-.15-119.46-.09-238.94c0-5.66.14-11.32.35-17,.13-3.57-1-6.13-4.6-7.34-11.78-3.93-23.44-8.28-35.35-11.81-13.68-4.07-27.43-8.09-41.39-10.94-19.06-3.89-38.34-6.65-57.53-9.89a129.92,129.92,0,0,0-42.79,0c-13.14,2.15-26.33,4-39.42,6.38-12.9,2.39-25.87,4.71-38.5,8.19C384,152.2,366.52,158,349,163.64c-7.73,2.49-8.39,3.72-8.35,12,0,4.67.36,9.33.37,14Q341.06,245.09,341,300.57Z" transform="translate(-1 -1)"/><path class="cls-1" d="M341,300.57q0-55.49,0-111c0-4.66-.35-9.32-.37-14,0-8.25.62-9.48,8.35-12,17.53-5.63,35-11.44,52.77-16.32,12.63-3.48,25.6-5.8,38.5-8.19,13.09-2.41,26.28-4.23,39.42-6.38a129.92,129.92,0,0,1,42.79,0c19.19,3.24,38.47,6,57.53,9.89,14,2.85,27.71,6.87,41.39,10.94,11.91,3.53,23.57,7.88,35.35,11.81,3.61,1.21,4.73,3.77,4.6,7.34-.21,5.66-.35,11.32-.35,17q0,119.47.09,238.94c0,4.14-1.34,5.59-5.47,5.57q-38.49-.18-77,0c-4.3,0-5.78-1.37-5.77-5.8.14-66.48.09-133,.26-199.44,0-4.78-2.5-7.1-6-8.75A121.88,121.88,0,0,0,525.38,209c-21.82-1.75-43.69-2.14-65.17,2.65-9,2-17.64,5.79-26.28,9.17-3.62,1.42-5.05,4.49-5,8.82.18,66.48.14,133,.23,199.45,0,3.6-1.22,5.12-4.91,5.11q-39.24-.11-78.48,0c-4.25,0-4.81-2.17-4.8-5.71q.12-64,.05-128Z" transform="translate(-1 -1)"/></svg>